{
  "title": "Happy Ending (2014) - 1CD - DVDSCR-Rip - Hindi - x264 - MP3 - Ma",
  "uid": 11539952,
  "size": 735462374,
  "categoryP": "video",
  "categoryS": "movies",
  "magnet": "?xt=urn:btih:8849e9d37213bf80fcda2edd44580a1055a48023&amp;dn=Happy+Ending+%282014%29+-+1CD+-+DVDSCR-Rip+-+Hindi+-+x264+-+MP3+-+Ma&amp;tr=udp%3A%2F%2Ftracker.openbittorrent.com%3A80&amp;tr=udp%3A%2F%2Fopen.demonii.com%3A1337&amp;tr=udp%3A%2F%2Ftracker.coppersurfer.tk%3A6969&amp;tr=udp%3A%2F%2Fexodus.desync.com%3A6969",
  "seeders": 60,
  "leechers": 6,
  "uploader": "inovai",
  "files": 3,
  "time": 1416663340,
  "description": "Happy Ending (2014) - 1CD - DVDSCR-Rip - Hindi - x264 - MP3 - Mafiaking - Team TellyTNT ExClusive\n\nCover:\n &lt;a href=&quot;\nhttp://forum.primetimeshow.in/posting.php?mode=reply&amp;f=7&amp;t=823&quot; rel=&quot;nofollow&quot; target=&quot;_NEW&quot;&gt;\nhttp://forum.primetimeshow.in/posting.php?mode=reply&amp;f=7&amp;t=823&lt;/a&gt;\n\n\nRatings: 7.8/10\n\nGENRE: Comedy | Romance\n\nScreenshots:\n &lt;a href=&quot;\nhttp://m.primetimeshow.in/share-0C76_54708233.html&quot; rel=&quot;nofollow&quot; target=&quot;_NEW&quot;&gt;\nhttp://m.primetimeshow.in/share-0C76_54708233.html&lt;/a&gt;\n &lt;a href=&quot;\nhttp://m.primetimeshow.in/share-6D6A_54708233.html&quot; rel=&quot;nofollow&quot; target=&quot;_NEW&quot;&gt;\nhttp://m.primetimeshow.in/share-6D6A_54708233.html&lt;/a&gt;\n &lt;a href=&quot;\nhttp://m.primetimeshow.in/share-8F7B_54708233.html&quot; rel=&quot;nofollow&quot; target=&quot;_NEW&quot;&gt;\nhttp://m.primetimeshow.in/share-8F7B_54708233.html&lt;/a&gt;\n &lt;a href=&quot;\nhttp://m.primetimeshow.in/share-F67C_54708233.html&quot; rel=&quot;nofollow&quot; target=&quot;_NEW&quot;&gt;\nhttp://m.primetimeshow.in/share-F67C_54708233.html&lt;/a&gt;\n &lt;a href=&quot;\nhttp://m.primetimeshow.in/share-80AF_54708233.html&quot; rel=&quot;nofollow&quot; target=&quot;_NEW&quot;&gt;\nhttp://m.primetimeshow.in/share-80AF_54708233.html&lt;/a&gt;\n\nGeneral\nUnique ID : 179643164289059241905914798396171744003 (0x872603D32A5435C7A06EC891BD0DF303)\nComplete name : Happy Ending (2014) - 1CD - DVDSCR-Rip - Hindi - x264 - MP3 - Mafiaking - Team TellyTNT ExClusive.mkv\nFormat : Matroska\nFormat version : Version 4 / Version 2\nFile size : 696 MiB\nDuration : 2h 13mn\nOverall bit rate : 731 Kbps\nMovie name : Happy Ending (2014) - 1CD - DVDSCR-Rip - Hindi - x264 - MP3 - Mafiaking - Team TellyTNT ExClusive\nEncoded date : UTC 2014-11-21 18:44:20\nWriting application : mkvmerge v7.0.0 ('Where We Going') 64bit built on Jun 9 2014 15:16:27\nWriting library : libebml v1.3.0 + libmatroska v1.4.1\n\n\nVideo\nID : 1\nFormat : AVC\nFormat/Info : Advanced Video Codec\nFormat profile : &lt;a class=&quot;__cf_email__&quot; href=&quot;/cdn-cgi/l/email-protection&quot; data-cfemail=&quot;eca4858b84aca0d8c2dd&quot;&gt;[email&amp;#160;protected]&lt;/a&gt;&lt;script cf-hash='f9e31' type=&quot;text/javascript&quot;&gt;\n/* &lt;![CDATA[ */!function(){try{var t=&quot;currentScript&quot;in document?document.currentScript:function(){for(var t=document.getElementsByTagName(&quot;script&quot;),e=t.length;e--;)if(t[e].getAttribute(&quot;cf-hash&quot;))return t[e]}();if(t&amp;&amp;t.previousSibling){var e,r,n,i,c=t.previousSibling,a=c.getAttribute(&quot;data-cfemail&quot;);if(a){for(e=&quot;&quot;,r=parseInt(a.substr(0,2),16),n=2;a.length-n;n+=2)i=parseInt(a.substr(n,2),16)^r,e+=String.fromCharCode(i);e=document.createTextNode(e),c.parentNode.replaceChild(e,c)}}}catch(u){}}();/* ]]&gt; */&lt;/script&gt;\nFormat settings, CABAC : Yes\nFormat settings, ReFrames : 4 frames\nCodec ID : V_MPEG4/ISO/AVC\nDuration : 2h 13mn\nBit rate : 665 Kbps\nWidth : 640 pixels\nHeight : 272 pixels\nDisplay aspect ratio : 2.35:1\nFrame rate mode : Constant\nFrame rate : 25.000 fps\nColor space : YUV\nChroma subsampling : 4:2:0\nBit depth : 8 bits\nScan type : Progressive\nBits/(Pixel*Frame) : 0.153\nStream size : 621 MiB (89%)\nTitle : Mafiaking\nWriting library : x264 core 142 r2431 ac76440\nLanguage : Hindi\nDefault : Yes\nForced : No\n\n\nAudio\nID : 2\nFormat : MPEG Audio\nFormat version : Version 2\nFormat profile : Layer 3\nMode : Joint stereo\nMode extension : MS Stereo\nCodec ID : A_MPEG/L3\nCodec ID/Hint : MP3\nDuration : 2h 13mn\nBit rate mode : Constant\nBit rate : 64.0 Kbps\nChannel(s) : 2 channels\nSampling rate : 24.0 KHz\nCompression mode : Lossy\nStream size : 60.9 MiB (9%)\nTitle : Mafiaking\nWriting library : LAME3.99r\nLanguage : Hindi\nDefault : Yes\nForced : No\n\nSAMPLE WITH IN TORRENT!\n\nThanks to Mafiaking - Team TellyTNT ExClusive!!\n\nSeed n Enjoy!!",
  "parsed": {
    "xt": "urn:btih:8849e9d37213bf80fcda2edd44580a1055a48023",
    "dn": "Happy Ending (2014) - 1CD - DVDSCR-Rip - Hindi - x264 - MP3 - Ma",
    "tr": [
      "udp://exodus.desync.com:6969",
      "udp://open.demonii.com:1337",
      "udp://tracker.coppersurfer.tk:6969",
      "udp://tracker.openbittorrent.com:80"
    ],
    "infoHash": "8849e9d37213bf80fcda2edd44580a1055a48023",
    "infoHashBuffer": {
      "type": "Buffer",
      "data": [
        136,
        73,
        233,
        211,
        114,
        19,
        191,
        128,
        252,
        218,
        46,
        221,
        68,
        88,
        10,
        16,
        85,
        164,
        128,
        35
      ]
    },
    "name": "Happy Ending (2014) - 1CD - DVDSCR-Rip - Hindi - x264 - MP3 - Ma",
    "announce": [
      "udp://exodus.desync.com:6969",
      "udp://open.demonii.com:1337",
      "udp://tracker.coppersurfer.tk:6969",
      "udp://tracker.openbittorrent.com:80"
    ],
    "urlList": []
  },
  "previous": 2,
  "peers": 26,
  "last_updated": "2016-12-27T06:04:11.766Z"
}